<svg id="Capa_1" enable-background="new 0 0 512 512" height="512" viewBox="0 0 512 512" width="512" xmlns="http://www.w3.org/2000/svg"><path d="m257.688 460.79c-28.812 0-51.177-11.097-66.473-32.981-16.921-24.211-25.146-61.431-25.146-113.787 0-45.354 13.237-102.115 39.344-168.705 19.258-49.118 38.253-84.728 39.053-86.219 2.611-4.874 7.692-7.917 13.222-7.917 5.529 0 10.61 3.042 13.222 7.917.8 1.492 19.796 37.101 39.053 86.219 26.107 66.59 39.345 123.351 39.345 168.705 0 52.356-8.225 89.576-25.146 113.787-15.297 21.885-37.661 32.981-66.474 32.981z" fill="#fbb5ae"/><path d="m309.962 145.317c-19.257-49.118-38.253-84.728-39.053-86.219-2.611-4.874-7.692-7.917-13.222-7.917v409.609c28.814 0 51.178-11.097 66.473-32.981 16.921-24.21 25.146-61.431 25.146-113.787.001-45.354-13.237-102.114-39.344-168.705z" fill="#fb9d9b"/><path d="m255.138 460.785c-3.781 0-7.564-.33-11.348-.99-30.46-5.316-60.028-31.682-90.392-80.605-23.111-37.236-41.151-92.356-53.619-163.83-9.186-52.657-11.724-94.069-11.828-95.807-.318-5.344 2.235-10.453 6.701-13.405 4.467-2.953 10.168-3.3 14.958-.915 5.686 2.83 139.865 70.343 194.754 158.78 26.656 42.949 38.863 78.718 37.32 109.351-1.356 26.933-13.645 49.775-36.526 67.893-16.401 12.986-33.179 19.527-50.02 19.528z" fill="#fddad8"/><path d="m265.859 460.819c-8.712 0-16.914-1.199-24.654-3.589-22.326-6.894-39.505-23.093-52.518-49.521-13.814-28.055-16.042-53.615-6.811-78.142 10.584-28.121 35.849-53.158 77.239-76.541 84.565-47.776 233.05-34.062 239.329-33.453 4.966.48 9.368 3.398 11.745 7.784 2.377 4.387 2.417 9.668.107 14.09-3.068 5.874-76.108 144.413-160.425 192.047-32.345 18.274-60.085 27.325-84.012 27.325zm76.634-40.384h.01z" fill="#f92f3e"/><path d="m246.141 460.819c-23.929 0-51.665-9.049-84.012-27.324-84.316-47.635-157.356-186.173-160.425-192.047-2.31-4.422-2.27-9.704.107-14.09s6.779-7.304 11.745-7.784c6.28-.608 154.764-14.323 239.331 33.453 41.39 23.383 66.654 48.42 77.238 76.541 9.23 24.526 7.003 50.086-6.811 78.142-13.014 26.429-30.192 42.627-52.52 49.521-7.738 2.388-15.944 3.588-24.653 3.588z" fill="#fbb5ae"/><path d="m260.238 460.785c-16.842 0-33.618-6.54-50.021-19.529-22.881-18.118-35.17-40.96-36.527-67.893-1.543-30.633 10.665-66.402 37.321-109.351 54.889-88.437 189.067-155.949 194.753-158.78 4.791-2.386 10.492-2.037 14.958.915s7.02 8.061 6.701 13.405c-.103 1.737-2.642 43.149-11.827 95.807-12.469 71.474-30.508 126.594-53.618 163.83-30.365 48.923-59.933 75.289-90.393 80.605-3.781.661-7.567.991-11.347.991zm88.995-89.505h.01z" fill="#fb9d9b"/><path d="m420.723 106.148c-4.466-2.952-10.167-3.301-14.958-.915-4.408 2.194-86.031 43.266-148.077 102.819v252.671c.85.033 1.7.062 2.551.062 3.779 0 7.565-.33 11.348-.99 30.46-5.316 60.027-31.682 90.393-80.605 23.11-37.236 41.149-92.356 53.618-163.83 9.185-52.657 11.724-94.069 11.827-95.807.317-5.344-2.236-10.453-6.702-13.405z" fill="#fa676d"/></svg>
